# MagicaVoxel @ Ephtracy

# material
mtllib Box_7.mtl
usemtl palette

# normals
vn -1 0 0
vn 1 0 0
vn 0 0 1
vn 0 0 -1
vn 0 -1 0
vn 0 1 0

# texcoords
vt 0.841797 0.5
vt 0.966797 0.5
vt 0.994141 0.5

# verts
v -12 0 13
v -12 0 -12
v -12 2 8
v -12 2 5
v -12 8 12
v -12 8 8
v -12 8 5
v -12 8 1
v -12 11 12
v -12 11 8
v -12 11 5
v -12 11 1
v -12 16 5
v -12 16 -6
v -12 19 8
v -12 19 -6
v -12 21 13
v -12 21 -12
v -12 22 13
v -12 22 -12
v -12 31 13
v -12 31 -12
v -11 21 11
v -11 21 -11
v -11 22 11
v -11 22 -11
v -7 20 -12
v -7 20 -14
v -7 21 -11
v -7 21 -12
v -7 22 -11
v -7 22 -12
v -7 23 -12
v -7 23 -14
v 3 20 -12
v 3 20 -14
v 3 21 -11
v 3 21 -12
v 3 22 -11
v 3 22 -12
v 3 23 -12
v 3 23 -14
v -1 20 -12
v -1 20 -14
v -1 21 -11
v -1 21 -12
v -1 22 -11
v -1 22 -12
v -1 23 -12
v -1 23 -14
v 9 20 -12
v 9 20 -14
v 9 21 -11
v 9 21 -12
v 9 22 -11
v 9 22 -12
v 9 23 -12
v 9 23 -14
v 12 21 11
v 12 21 -11
v 12 22 11
v 12 22 -11
v 13 0 13
v 13 0 -12
v 13 1 -3
v 13 1 -6
v 13 8 13
v 13 8 10
v 13 8 3
v 13 8 -3
v 13 8 -6
v 13 8 -11
v 13 11 13
v 13 11 10
v 13 11 3
v 13 11 -3
v 13 11 -6
v 13 11 -11
v 13 16 10
v 13 16 -3
v 13 19 10
v 13 19 -6
v 13 21 13
v 13 21 -12
v 13 22 13
v 13 22 -12
v 13 31 13
v 13 31 -12
v -12 0 13
v -12 21 13
v -12 22 13
v -12 31 13
v -7 16 13
v -7 19 13
v 2 8 13
v 2 11 13
v 7 1 13
v 7 8 13
v 7 11 13
v 7 16 13
v 10 1 13
v 10 8 13
v 10 11 13
v 10 19 13
v 13 0 13
v 13 8 13
v 13 11 13
v 13 21 13
v 13 22 13
v 13 31 13
v -11 21 11
v -11 22 11
v 12 21 11
v 12 22 11
v -11 21 -11
v -11 22 -11
v -7 21 -11
v -7 22 -11
v -1 21 -11
v -1 22 -11
v 3 21 -11
v 3 22 -11
v 9 21 -11
v 9 22 -11
v 12 21 -11
v 12 22 -11
v -12 0 -12
v -12 21 -12
v -12 22 -12
v -12 31 -12
v -8 28 -12
v -8 31 -12
v -7 20 -12
v -7 21 -12
v -7 22 -12
v -7 23 -12
v -1 20 -12
v -1 21 -12
v -1 22 -12
v -1 23 -12
v 3 20 -12
v 3 21 -12
v 3 22 -12
v 3 23 -12
v 6 28 -12
v 6 31 -12
v 9 20 -12
v 9 21 -12
v 9 22 -12
v 9 23 -12
v 13 0 -12
v 13 21 -12
v 13 22 -12
v 13 31 -12
v -7 20 -14
v -7 23 -14
v -1 20 -14
v -1 23 -14
v 3 20 -14
v 3 23 -14
v 9 20 -14
v 9 23 -14
v -12 0 13
v 13 0 13
v -12 0 -12
v 13 0 -12
v -7 20 -12
v -1 20 -12
v 3 20 -12
v 9 20 -12
v -7 20 -14
v -1 20 -14
v 3 20 -14
v 9 20 -14
v -12 22 13
v 13 22 13
v -11 22 11
v 12 22 11
v -11 22 -11
v -7 22 -11
v -1 22 -11
v 3 22 -11
v 9 22 -11
v 12 22 -11
v -12 22 -12
v -7 22 -12
v -1 22 -12
v 3 22 -12
v 9 22 -12
v 13 22 -12
v -12 21 13
v 13 21 13
v -11 21 11
v 12 21 11
v -11 21 -11
v -7 21 -11
v -1 21 -11
v 3 21 -11
v 9 21 -11
v 12 21 -11
v -12 21 -12
v -7 21 -12
v -1 21 -12
v 3 21 -12
v 9 21 -12
v 13 21 -12
v -7 23 -12
v -1 23 -12
v 3 23 -12
v 9 23 -12
v -7 23 -14
v -1 23 -14
v 3 23 -14
v 9 23 -14
v -12 31 13
v 13 31 13
v 3 31 11
v 6 31 11
v -2 31 3
v 3 31 3
v 6 31 3
v 11 31 3
v -2 31 -0
v 3 31 -0
v 6 31 -0
v 11 31 -0
v -8 31 -9
v 3 31 -9
v -12 31 -12
v -8 31 -12
v 6 31 -12
v 13 31 -12

# faces
f 3/2/1 2/2/1 1/2/1
f 4/2/1 2/2/1 3/2/1
f 5/2/1 3/2/1 1/2/1
f 6/1/1 4/1/1 3/1/1
f 6/2/1 3/2/1 5/2/1
f 7/2/1 2/2/1 4/2/1
f 7/1/1 4/1/1 6/1/1
f 8/2/1 2/2/1 7/2/1
f 9/1/1 6/1/1 5/1/1
f 9/2/1 5/2/1 1/2/1
f 9/1/1 8/1/1 7/1/1
f 9/1/1 7/1/1 6/1/1
f 10/1/1 8/1/1 9/1/1
f 11/1/1 8/1/1 10/1/1
f 12/2/1 2/2/1 8/2/1
f 12/1/1 8/1/1 11/1/1
f 13/1/1 11/1/1 10/1/1
f 13/2/1 12/2/1 11/2/1
f 14/2/1 2/2/1 12/2/1
f 14/2/1 12/2/1 13/2/1
f 15/1/1 13/1/1 10/1/1
f 15/2/1 10/2/1 9/2/1
f 15/1/1 14/1/1 13/1/1
f 16/2/1 2/2/1 14/2/1
f 16/1/1 14/1/1 15/1/1
f 17/2/1 15/2/1 9/2/1
f 17/2/1 9/2/1 1/2/1
f 17/2/1 16/2/1 15/2/1
f 18/2/1 2/2/1 16/2/1
f 18/2/1 16/2/1 17/2/1
f 21/2/1 20/2/1 19/2/1
f 22/2/1 20/2/1 21/2/1
f 25/2/1 24/2/1 23/2/1
f 26/2/1 24/2/1 25/2/1
f 30/3/1 28/3/1 27/3/1
f 31/3/1 30/3/1 29/3/1
f 32/3/1 28/3/1 30/3/1
f 32/3/1 30/3/1 31/3/1
f 33/3/1 28/3/1 32/3/1
f 34/3/1 28/3/1 33/3/1
f 38/3/1 36/3/1 35/3/1
f 39/3/1 38/3/1 37/3/1
f 40/3/1 36/3/1 38/3/1
f 40/3/1 38/3/1 39/3/1
f 41/3/1 36/3/1 40/3/1
f 42/3/1 36/3/1 41/3/1
f 43/3/2 44/3/2 46/3/2
f 45/3/2 46/3/2 47/3/2
f 46/3/2 44/3/2 48/3/2
f 47/3/2 46/3/2 48/3/2
f 48/3/2 44/3/2 49/3/2
f 49/3/2 44/3/2 50/3/2
f 51/3/2 52/3/2 54/3/2
f 53/3/2 54/3/2 55/3/2
f 54/3/2 52/3/2 56/3/2
f 55/3/2 54/3/2 56/3/2
f 56/3/2 52/3/2 57/3/2
f 57/3/2 52/3/2 58/3/2
f 59/2/2 60/2/2 61/2/2
f 61/2/2 60/2/2 62/2/2
f 63/2/2 64/2/2 65/2/2
f 65/2/2 64/2/2 66/2/2
f 63/2/2 65/2/2 67/2/2
f 67/2/2 65/2/2 68/2/2
f 68/2/2 65/2/2 69/2/2
f 65/1/2 66/1/2 70/1/2
f 69/2/2 65/2/2 70/2/2
f 66/2/2 64/2/2 71/2/2
f 70/1/2 66/1/2 71/1/2
f 71/2/2 64/2/2 72/2/2
f 67/1/2 68/1/2 73/1/2
f 68/2/2 69/2/2 74/2/2
f 73/1/2 68/1/2 74/1/2
f 69/1/2 70/1/2 75/1/2
f 74/2/2 69/2/2 75/2/2
f 70/1/2 71/1/2 75/1/2
f 71/1/2 72/1/2 75/1/2
f 75/1/2 72/1/2 76/1/2
f 76/1/2 72/1/2 77/1/2
f 72/2/2 64/2/2 78/2/2
f 77/1/2 72/1/2 78/1/2
f 73/2/2 74/2/2 79/2/2
f 74/2/2 75/2/2 79/2/2
f 75/2/2 76/2/2 79/2/2
f 76/1/2 77/1/2 80/1/2
f 79/2/2 76/2/2 80/2/2
f 73/2/2 79/2/2 81/2/2
f 79/1/2 80/1/2 81/1/2
f 80/1/2 77/1/2 82/1/2
f 81/1/2 80/1/2 82/1/2
f 77/2/2 78/2/2 82/2/2
f 73/2/2 81/2/2 83/2/2
f 81/2/2 82/2/2 83/2/2
f 78/2/2 64/2/2 84/2/2
f 83/2/2 82/2/2 84/2/2
f 82/2/2 78/2/2 84/2/2
f 85/2/2 86/2/2 87/2/2
f 87/2/2 86/2/2 88/2/2
f 93/2/3 90/2/3 89/2/3
f 94/2/3 90/2/3 93/2/3
f 95/2/3 93/2/3 89/2/3
f 96/2/3 93/2/3 95/2/3
f 97/2/3 95/2/3 89/2/3
f 98/1/3 96/1/3 95/1/3
f 98/2/3 95/2/3 97/2/3
f 99/2/3 93/2/3 96/2/3
f 99/1/3 96/1/3 98/1/3
f 100/1/3 94/1/3 93/1/3
f 100/2/3 93/2/3 99/2/3
f 101/1/3 99/1/3 98/1/3
f 101/1/3 98/1/3 97/1/3
f 101/1/3 100/1/3 99/1/3
f 101/2/3 97/2/3 89/2/3
f 102/1/3 100/1/3 101/1/3
f 103/1/3 100/1/3 102/1/3
f 104/2/3 90/2/3 94/2/3
f 104/1/3 100/1/3 103/1/3
f 104/1/3 94/1/3 100/1/3
f 105/2/3 102/2/3 101/2/3
f 105/2/3 101/2/3 89/2/3
f 106/1/3 103/1/3 102/1/3
f 106/2/3 102/2/3 105/2/3
f 107/2/3 104/2/3 103/2/3
f 107/1/3 103/1/3 106/1/3
f 108/2/3 90/2/3 104/2/3
f 108/2/3 104/2/3 107/2/3
f 109/2/3 92/2/3 91/2/3
f 110/2/3 92/2/3 109/2/3
f 113/2/3 112/2/3 111/2/3
f 114/2/3 112/2/3 113/2/3
f 115/2/4 116/2/4 117/2/4
f 117/2/4 116/2/4 118/2/4
f 119/2/4 120/2/4 121/2/4
f 121/2/4 120/2/4 122/2/4
f 123/2/4 124/2/4 125/2/4
f 125/2/4 124/2/4 126/2/4
f 129/2/4 130/2/4 131/2/4
f 131/2/4 130/2/4 132/2/4
f 127/2/4 128/2/4 133/2/4
f 133/2/4 128/2/4 134/2/4
f 129/2/4 131/2/4 135/2/4
f 135/2/4 131/2/4 136/2/4
f 127/2/4 133/2/4 137/2/4
f 136/2/4 131/2/4 140/2/4
f 137/2/4 138/2/4 141/2/4
f 127/2/4 137/2/4 141/2/4
f 141/2/4 138/2/4 142/2/4
f 139/2/4 140/2/4 143/2/4
f 140/2/4 131/2/4 144/2/4
f 143/2/4 140/2/4 144/2/4
f 144/2/4 131/2/4 145/2/4
f 131/1/4 132/1/4 145/1/4
f 145/1/4 132/1/4 146/1/4
f 127/2/4 141/2/4 147/2/4
f 144/2/4 145/2/4 150/2/4
f 145/2/4 146/2/4 150/2/4
f 147/2/4 148/2/4 151/2/4
f 127/2/4 147/2/4 151/2/4
f 151/2/4 148/2/4 152/2/4
f 149/2/4 150/2/4 153/2/4
f 150/2/4 146/2/4 154/2/4
f 153/2/4 150/2/4 154/2/4
f 155/3/4 156/3/4 157/3/4
f 157/3/4 156/3/4 158/3/4
f 159/3/4 160/3/4 161/3/4
f 161/3/4 160/3/4 162/3/4
f 165/2/5 164/2/5 163/2/5
f 166/2/5 164/2/5 165/2/5
f 171/3/5 168/3/5 167/3/5
f 172/3/5 168/3/5 171/3/5
f 173/3/5 170/3/5 169/3/5
f 174/3/5 170/3/5 173/3/5
f 177/2/5 176/2/5 175/2/5
f 178/2/5 176/2/5 177/2/5
f 179/2/5 177/2/5 175/2/5
f 184/2/5 176/2/5 178/2/5
f 185/2/5 179/2/5 175/2/5
f 185/2/5 180/2/5 179/2/5
f 186/2/5 180/2/5 185/2/5
f 187/2/5 182/2/5 181/2/5
f 188/2/5 182/2/5 187/2/5
f 189/2/5 184/2/5 183/2/5
f 190/2/5 176/2/5 184/2/5
f 190/2/5 184/2/5 189/2/5
f 191/2/6 192/2/6 193/2/6
f 193/2/6 192/2/6 194/2/6
f 191/2/6 193/2/6 195/2/6
f 194/2/6 192/2/6 200/2/6
f 191/2/6 195/2/6 201/2/6
f 195/2/6 196/2/6 201/2/6
f 201/2/6 196/2/6 202/2/6
f 197/2/6 198/2/6 203/2/6
f 203/2/6 198/2/6 204/2/6
f 199/2/6 200/2/6 205/2/6
f 200/2/6 192/2/6 206/2/6
f 205/2/6 200/2/6 206/2/6
f 207/3/6 208/3/6 211/3/6
f 211/3/6 208/3/6 212/3/6
f 209/3/6 210/3/6 213/3/6
f 213/3/6 210/3/6 214/3/6
f 215/2/6 216/2/6 217/2/6
f 217/2/6 216/2/6 218/2/6
f 215/2/6 217/2/6 219/2/6
f 217/1/6 218/1/6 220/1/6
f 219/2/6 217/2/6 220/2/6
f 218/2/6 216/2/6 221/2/6
f 220/1/6 218/1/6 221/1/6
f 221/2/6 216/2/6 222/2/6
f 219/1/6 220/1/6 223/1/6
f 215/2/6 219/2/6 223/2/6
f 221/1/6 222/1/6 223/1/6
f 220/1/6 221/1/6 223/1/6
f 223/1/6 222/1/6 224/1/6
f 224/1/6 222/1/6 225/1/6
f 222/2/6 216/2/6 226/2/6
f 225/1/6 222/1/6 226/1/6
f 215/2/6 223/2/6 227/2/6
f 223/2/6 224/2/6 227/2/6
f 224/1/6 225/1/6 228/1/6
f 227/2/6 224/2/6 228/2/6
f 215/2/6 227/2/6 229/2/6
f 227/1/6 228/1/6 230/1/6
f 229/2/6 227/2/6 230/2/6
f 228/1/6 225/1/6 231/1/6
f 230/1/6 228/1/6 231/1/6
f 225/2/6 226/2/6 231/2/6
f 226/2/6 216/2/6 232/2/6
f 231/2/6 226/2/6 232/2/6
