# MagicaVoxel @ Ephtracy

# material
mtllib Sign_3.mtl
usemtl palette

# normals
vn -1 0 0
vn 1 0 0
vn 0 0 1
vn 0 0 -1
vn 0 -1 0
vn 0 1 0

# texcoords
vt 0.845703 0.5
vt 0.962891 0.5
vt 0.986328 0.5
vt 0.994141 0.5

# verts
v -3 0 3
v -3 0 -1
v -3 32 3
v -3 32 -1
v 2 14 16
v 2 14 8
v 2 14 3
v 2 14 -1
v 2 14 -7
v 2 14 -16
v 2 18 8
v 2 18 3
v 2 18 -1
v 2 18 -3
v 2 24 8
v 2 24 3
v 2 24 -1
v 2 24 -3
v 2 28 8
v 2 28 3
v 2 28 -1
v 2 28 -3
v 2 32 3
v 2 32 -1
v 2 34 8
v 2 34 -3
v 2 38 16
v 2 38 8
v 2 38 -7
v 2 38 -16
v 2 0 3
v 2 0 -1
v 2 14 3
v 2 14 -1
v 3 14 16
v 3 14 8
v 3 14 -7
v 3 14 -16
v 3 18 8
v 3 18 -3
v 3 24 8
v 3 24 -3
v 3 28 8
v 3 28 -3
v 3 34 8
v 3 34 -3
v 3 38 16
v 3 38 8
v 3 38 -7
v 3 38 -16
v 2 14 16
v 2 38 16
v 3 14 16
v 3 38 16
v -3 0 3
v -3 32 3
v 2 0 3
v 2 14 3
v 2 18 3
v 2 24 3
v 2 28 3
v 2 32 3
v -3 0 -1
v -3 32 -1
v 2 0 -1
v 2 14 -1
v 2 18 -1
v 2 24 -1
v 2 28 -1
v 2 32 -1
v 2 14 -16
v 2 38 -16
v 3 14 -16
v 3 38 -16
v -3 0 3
v 2 0 3
v -3 0 -1
v 2 0 -1
v 2 14 16
v 3 14 16
v 2 14 8
v 3 14 8
v 2 14 3
v 2 14 -1
v 2 14 -7
v 3 14 -7
v 2 14 -16
v 3 14 -16
v -3 32 3
v 2 32 3
v -3 32 -1
v 2 32 -1
v 2 38 16
v 3 38 16
v 2 38 8
v 3 38 8
v 2 38 -7
v 3 38 -7
v 2 38 -16
v 3 38 -16

# faces
f 3/4/1 2/4/1 1/4/1
f 4/4/1 2/4/1 3/4/1
f 11/3/1 6/3/1 5/3/1
f 11/1/1 7/1/1 6/1/1
f 12/1/1 7/1/1 11/1/1
f 13/1/1 9/1/1 8/1/1
f 14/1/1 9/1/1 13/1/1
f 15/3/1 12/3/1 11/3/1
f 15/3/1 11/3/1 5/3/1
f 16/3/1 12/3/1 15/3/1
f 17/3/1 14/3/1 13/3/1
f 18/1/1 9/1/1 14/1/1
f 18/3/1 14/3/1 17/3/1
f 19/1/1 16/1/1 15/1/1
f 19/3/1 15/3/1 5/3/1
f 20/1/1 16/1/1 19/1/1
f 21/1/1 18/1/1 17/1/1
f 22/1/1 9/1/1 18/1/1
f 22/1/1 18/1/1 21/1/1
f 23/3/1 20/3/1 19/3/1
f 24/3/1 22/3/1 21/3/1
f 25/3/1 19/3/1 5/3/1
f 25/3/1 24/3/1 23/3/1
f 25/3/1 23/3/1 19/3/1
f 26/1/1 9/1/1 22/1/1
f 26/3/1 24/3/1 25/3/1
f 26/3/1 22/3/1 24/3/1
f 27/3/1 25/3/1 5/3/1
f 28/1/1 26/1/1 25/1/1
f 28/3/1 25/3/1 27/3/1
f 29/3/1 10/3/1 9/3/1
f 29/1/1 26/1/1 28/1/1
f 29/1/1 9/1/1 26/1/1
f 30/3/1 10/3/1 29/3/1
f 31/4/2 32/4/2 33/4/2
f 33/4/2 32/4/2 34/4/2
f 35/3/2 36/3/2 39/3/2
f 36/1/2 37/1/2 39/1/2
f 39/1/2 37/1/2 40/1/2
f 35/3/2 39/3/2 41/3/2
f 39/3/2 40/3/2 41/3/2
f 40/1/2 37/1/2 42/1/2
f 41/3/2 40/3/2 42/3/2
f 35/3/2 41/3/2 43/3/2
f 41/1/2 42/1/2 43/1/2
f 42/1/2 37/1/2 44/1/2
f 43/1/2 42/1/2 44/1/2
f 35/3/2 43/3/2 45/3/2
f 43/3/2 44/3/2 45/3/2
f 44/1/2 37/1/2 46/1/2
f 45/3/2 44/3/2 46/3/2
f 35/3/2 45/3/2 47/3/2
f 45/1/2 46/1/2 48/1/2
f 47/3/2 45/3/2 48/3/2
f 37/3/2 38/3/2 49/3/2
f 48/1/2 46/1/2 49/1/2
f 46/1/2 37/1/2 49/1/2
f 49/3/2 38/3/2 50/3/2
f 53/3/3 52/3/3 51/3/3
f 54/3/3 52/3/3 53/3/3
f 57/4/3 56/4/3 55/4/3
f 58/4/3 56/4/3 57/4/3
f 59/4/3 56/4/3 58/4/3
f 60/4/3 56/4/3 59/4/3
f 61/4/3 56/4/3 60/4/3
f 62/4/3 56/4/3 61/4/3
f 63/4/4 64/4/4 65/4/4
f 65/4/4 64/4/4 66/4/4
f 66/4/4 64/4/4 67/4/4
f 67/4/4 64/4/4 68/4/4
f 68/4/4 64/4/4 69/4/4
f 69/4/4 64/4/4 70/4/4
f 71/3/4 72/3/4 73/3/4
f 73/3/4 72/3/4 74/3/4
f 77/4/5 76/4/5 75/4/5
f 78/4/5 76/4/5 77/4/5
f 81/3/5 80/3/5 79/3/5
f 82/3/5 80/3/5 81/3/5
f 83/1/5 82/1/5 81/1/5
f 84/1/5 82/1/5 83/1/5
f 85/1/5 82/1/5 84/1/5
f 86/1/5 82/1/5 85/1/5
f 87/3/5 86/3/5 85/3/5
f 88/3/5 86/3/5 87/3/5
f 89/4/6 90/4/6 91/4/6
f 91/4/6 90/4/6 92/4/6
f 93/3/6 94/3/6 95/3/6
f 95/3/6 94/3/6 96/3/6
f 95/1/6 96/1/6 97/1/6
f 97/1/6 96/1/6 98/1/6
f 97/3/6 98/3/6 99/3/6
f 99/3/6 98/3/6 100/3/6
